<svg width="40" height="40" viewBox="0 0 40 40" fill="none" xmlns="http://www.w3.org/2000/svg">
<path fill-rule="evenodd" clip-rule="evenodd" d="M8.60178 6.66602H31.3969C32.2755 6.66599 33.0334 6.66596 33.6577 6.71697C34.3166 6.7708 34.972 6.88966 35.6026 7.21099C36.5434 7.69035 37.3084 8.45526 37.7877 9.39607C38.109 10.0267 38.2279 10.6821 38.2817 11.341C38.3327 11.9653 38.3327 12.7232 38.3327 13.6017V18.3327C38.3327 19.2532 37.5865 19.9994 36.666 19.9994C35.7455 19.9994 34.9994 19.2532 34.9994 18.3327V13.666C34.9994 12.7051 34.9981 12.0846 34.9595 11.6124C34.9225 11.1596 34.8597 10.9918 34.8177 10.9094C34.6579 10.5958 34.4029 10.3408 34.0893 10.181C34.0069 10.139 33.8391 10.0762 33.3863 10.0392C32.9141 10.0006 32.2936 9.99935 31.3327 9.99935H8.66602C7.7051 9.99935 7.08464 10.0006 6.61241 10.0392C6.15964 10.0762 5.99177 10.139 5.90937 10.181C5.59576 10.3408 5.3408 10.5958 5.18101 10.9094C5.13902 10.9918 5.07622 11.1596 5.03923 11.6124C5.00065 12.0846 4.99935 12.7051 4.99935 13.666V19.666C4.99935 20.6269 5.00065 21.2474 5.03923 21.7196C5.07622 22.1724 5.13902 22.3403 5.18101 22.4227C5.3408 22.7363 5.59576 22.9912 5.90937 23.151C5.99177 23.193 6.15964 23.2558 6.61241 23.2928C7.08464 23.3314 7.7051 23.3327 8.66602 23.3327H18.3327C19.2532 23.3327 19.9994 24.0789 19.9994 24.9994C19.9994 25.9198 19.2532 26.666 18.3327 26.666H8.60181C7.72322 26.666 6.96527 26.6661 6.34097 26.6151C5.68206 26.5612 5.0267 26.4424 4.39607 26.121C3.45526 25.6417 2.69035 24.8768 2.21099 23.936C1.88966 23.3053 1.7708 22.65 1.71697 21.9911C1.66596 21.3668 1.66599 20.6088 1.66602 19.7303V13.6018C1.66599 12.7232 1.66596 11.9653 1.71697 11.341C1.7708 10.6821 1.88966 10.0267 2.21099 9.39607C2.69035 8.45526 3.45526 7.69035 4.39607 7.21099C5.0267 6.88966 5.68206 6.7708 6.34097 6.71697C6.96526 6.66596 7.7232 6.66599 8.60178 6.66602ZM9.58269 16.666C9.58269 15.5154 10.5154 14.5827 11.666 14.5827C12.8166 14.5827 13.7494 15.5154 13.7494 16.666C13.7494 17.8166 12.8166 18.7494 11.666 18.7494C10.5154 18.7494 9.58269 17.8166 9.58269 16.666ZM17.916 16.666C17.916 15.5154 18.8488 14.5827 19.9994 14.5827C21.1499 14.5827 22.0827 15.5154 22.0827 16.666C22.0827 17.8166 21.1499 18.7494 19.9994 18.7494C18.8488 18.7494 17.916 17.8166 17.916 16.666ZM26.2494 16.666C26.2494 15.5154 27.1821 14.5827 28.3327 14.5827C29.4833 14.5827 30.416 15.5154 30.416 16.666C30.416 17.8166 29.4833 18.7494 28.3327 18.7494C27.1821 18.7494 26.2494 17.8166 26.2494 16.666ZM24.5827 25.416C24.5827 22.8847 26.6347 20.8327 29.166 20.8327C31.6973 20.8327 33.7494 22.8847 33.7494 25.416V26.7127C34.0868 26.7526 34.4654 26.8354 34.846 27.0293C35.4732 27.3489 35.9831 27.8588 36.3027 28.486C36.5332 28.9384 36.6066 29.388 36.6378 29.769C36.6661 30.1159 36.6661 30.5255 36.666 30.9462V32.3859C36.6661 32.8065 36.6661 33.2161 36.6378 33.5631C36.6066 33.9441 36.5332 34.3936 36.3027 34.846C35.9831 35.4732 35.4732 35.9831 34.846 36.3027C34.3936 36.5332 33.9441 36.6066 33.5631 36.6378C33.2161 36.6661 32.8065 36.6661 32.3859 36.666H25.9462C25.5255 36.6661 25.1159 36.6661 24.769 36.6378C24.388 36.6066 23.9384 36.5332 23.486 36.3027C22.8588 35.9831 22.3489 35.4732 22.0293 34.846C21.7988 34.3936 21.7254 33.9441 21.6943 33.5631C21.6659 33.2161 21.666 32.8065 21.666 32.3858V30.9462C21.666 30.5256 21.6659 30.1159 21.6943 29.769C21.7254 29.388 21.7988 28.9384 22.0293 28.486C22.3489 27.8588 22.8588 27.3489 23.486 27.0293C23.8666 26.8354 24.2452 26.7526 24.5827 26.7127V25.416ZM25.9994 29.9994C25.5051 29.9994 25.2347 30.0006 25.0404 30.0165C25.0327 30.0172 25.0254 30.0178 25.0184 30.0184C25.0178 30.0254 25.0172 30.0327 25.0165 30.0404C25.0006 30.2347 24.9994 30.5051 24.9994 30.9994V32.3327C24.9994 32.8269 25.0006 33.0973 25.0165 33.2916C25.0172 33.2994 25.0178 33.3067 25.0184 33.3136C25.0254 33.3142 25.0327 33.3149 25.0404 33.3155C25.2347 33.3314 25.5051 33.3327 25.9994 33.3327H32.3327C32.8269 33.3327 33.0973 33.3314 33.2916 33.3155C33.2994 33.3149 33.3067 33.3142 33.3136 33.3136C33.3142 33.3067 33.3149 33.2994 33.3155 33.2916C33.3314 33.0973 33.3327 32.8269 33.3327 32.3327V30.9994C33.3327 30.5051 33.3314 30.2347 33.3155 30.0404C33.3149 30.0327 33.3142 30.0253 33.3136 30.0184C33.3067 30.0178 33.2994 30.0172 33.2916 30.0165C33.0973 30.0006 32.8269 29.9994 32.3327 29.9994H25.9994ZM30.416 26.666H27.916V25.416C27.916 24.7257 28.4757 24.166 29.166 24.166C29.8564 24.166 30.416 24.7257 30.416 25.416V26.666Z" fill="white"/>
</svg>
